<svg xmlns="http://www.w3.org/2000/svg"><symbol id="arrow" viewBox="0 0 61.66 60.01"><path d="M39.44 52.52l5.29-5.29L27.55 30l17.18-17.21-5.29-5.29L16.93 30z"/></symbol><symbol id="going-highlighted" viewBox="0 0 61.66 60.01"><defs><style>.cls-1{fill:#fff}</style></defs><circle cx="30.83" cy="30.01" r="28.16"/><path d="M24 38.24l-8.86-8.86-3 3L24 44.25l25.51-25.49-3-3z" class="cls-1"/></symbol><symbol id="close" viewBox="0 0 61.66 60.01"><path d="M50.57 14.24l-4-4L30.83 26 15.06 10.26l-4 4L26.85 30 11.09 45.77l4 4L30.83 34 46.6 49.75l4-4L34.81 30z"/></symbol><symbol id="going" viewBox="0 0 61.66 60.01"><defs><style>.cls-1{fill:none;stroke:#000;stroke-miterlimit:10;stroke-width:3px}</style></defs><path d="M24 38.24l-8.86-8.86-3 3L24 44.25l25.51-25.49-3-3z"/><circle cx="30.83" cy="30.01" r="28.16" class="cls-1"/></symbol><symbol id="search" viewBox="0 0 61.66 60.01"><path d="M36.05 34.35h-1.93l-.69-.66a15.92 15.92 0 1 0-1.71 1.71l.66.68V38L44.6 50.21l3.64-3.64zm-14.67 0a11 11 0 1 1 11-11 11 11 0 0 1-11 11z"/></symbol><symbol id="location" viewBox="0 0 61.66 60.01"><path d="M30.83 3.3L9.75 54.71l2 2 19.09-8.43 19.08 8.43 2-2z"/></symbol><symbol id="navigation" viewBox="0 0 61.66 60.01"><path d="M30.83 3.15A18.79 18.79 0 0 0 12 22c0 14.1 18.8 34.91 18.8 34.91S49.63 36.05 49.63 22a18.79 18.79 0 0 0-18.8-18.85zm0 25.51A6.71 6.71 0 1 1 37.54 22a6.7 6.7 0 0 1-6.71 6.66z"/></symbol><symbol id="star" viewBox="0 0 61.66 60.01"><defs><style>.cls-1{fill:none;stroke:#000;stroke-miterlimit:10;stroke-width:2px}</style></defs><path d="M32.29 43.64l16.59 12.08-6.35-19.5 16.59-11.8H38.77L32.29 4.3l-6.48 20.12H5.46l16.59 11.8-6.35 19.5z" class="cls-1"/></symbol><symbol id="toogle" viewBox="0 0 61.66 60.01"><path d="M6.39 10.26h48.88v6.58H6.39zm0 16.46h48.88v6.58H6.39zm0 16.45h48.88v6.58H6.39z"/></symbol><symbol id="share" viewBox="0 0 61.66 60.01"><path d="M47.74 41.62a8.16 8.16 0 0 0-5.52 2.17l-20.1-11.7a9.24 9.24 0 0 0 .25-2 9.16 9.16 0 0 0-.25-2L42 16.56a8.44 8.44 0 1 0-2.71-6.17 9.33 9.33 0 0 0 .26 2L19.67 24a8.46 8.46 0 1 0 0 12.34L39.74 48a8 8 0 0 0-.23 1.83 8.23 8.23 0 1 0 8.23-8.23z"/></symbol><symbol id="star-highlighted" viewBox="0 0 61.66 60.01"><path d="M42.25 36.61l7.08 21.73-18.5-13.46-18.49 13.46 7.07-21.73L.87 23.42h22.75l7.21-22.38 7.21 22.38h22.75L42.25 36.61z"/></symbol></svg>