<svg id="reversed" xmlns="http://www.w3.org/2000/svg" width="1395.7" height="405" viewBox="0 0 1395.7 405"><title>junction-logo</title><path d="M611.3,174.7c15.2,14.4,23.3,35.3,23.3,60.3v77.1H612.7V235c0-46.3-34.9-58.7-55.6-58.7s-55.5,12.4-55.5,58.7v77.1H479.7V235c0-24.5,8-45.2,23.3-59.8s33.3-20.8,54.1-20.8S597.5,161.6,611.3,174.7Zm637.5,0c-13.9-13.1-33.1-20.3-54.2-20.3s-40.1,7.4-54.1,20.8-23.4,35.3-23.4,59.8v77.1h22V235c0-46.3,34.9-58.7,55.5-58.7s55.6,12.4,55.6,58.7v77.1h21.9V235C1272.1,210,1264,189.1,1248.8,174.7ZM886.3,312.1h21.9V158.5H886.3ZM678.6,180.5c-13.1,13.8-20.3,33-20.3,54.1s7.4,40.1,20.8,54.1,35.3,23.4,59.8,23.4h73.2V290.2H738.9c-46.3,0-58.7-35-58.7-55.6S692.6,179,738.9,179h73.2V157.1H738.9C713.9,157.1,693,165.2,678.6,180.5ZM434.7,235.4c0,46.3-35,58.7-55.6,58.7s-55.6-12.4-55.6-58.7V158.3H301.6v77.1c0,25,8.1,45.9,23.4,60.3S358,316,379.1,316s40.1-7.4,54.1-20.8,23.4-35.3,23.4-59.8V158.3H434.7ZM908,118.7H858.2V69H837.9v49.7l-581.3.2V235.4c0,46.3-34.9,58.7-55.5,58.7s-55.6-12.4-55.6-58.7H123.6c0,25,8.1,45.9,23.3,60.3S180,316,201.1,316s40.1-7.4,54.1-20.8,23.3-35.3,23.3-59.8V136.7H837.4V312.1h21.9V136.7H908Zm185.9,116.1a80.3,80.3,0,1,1-80.2-80.2A80.3,80.3,0,0,1,1093.9,234.8Zm-21.6,0a58.7,58.7,0,1,0-58.6,58.7A58.7,58.7,0,0,0,1072.3,234.8Z" fill="#F84646"/></svg>
